<svg version="1.1" id="svg2" xmlns="http://www.w3.org/2000/svg" xmlns:xlink="http://www.w3.org/1999/xlink" x="0" y="0" viewBox="794.7 121.8 1143.7 595" xml:space="preserve"><style>.st1{fill:#110f0d}.st2{fill:#44c0b2}</style><g id="g10" transform="matrix(1.33333 0 0 -1.33333 0 1152)"><g id="g12"><defs><path id="SVGID_1_" d="M161.6-26.9h1728v1152h-1728z"/></defs><clipPath id="SVGID_2_"><use xlink:href="#SVGID_1_" overflow="visible"/></clipPath><g id="g14" clip-path="url(#SVGID_2_)"><g id="g20" transform="translate(218.416 473.634)"><path id="path22" class="st1" d="M377.6 117.1h51.7V2.4h1c5.1 10 10.6 19.2 15.8 28.5l52.4 86.2h64L486.2 6.6l80.5-148.9h-61l-56.5 112-19.9-27.3v-84.7h-51.7v259.4z"/></g><g id="g24" transform="translate(522.523 329.724)"><path id="path26" class="st1" d="M377.6 117.1c0 14.2-5.5 38.1-29.4 38.1-21.9 0-30.8-22.3-32.2-38.1h61.6zm-61.3-40c1.7-24.2 22.9-35.8 47.3-35.8 17.8 0 32.2 2.7 46.2 7.7l6.8-39.6c-17.1-7.7-38-11.9-60.6-11.9-56.8 0-89.4 37.3-89.4 96.2 0 47.7 26.4 100.4 84.6 100.4 54.1 0 74.7-47.3 74.7-93.9 0-10-1-18.9-1.7-23.1H316.3z"/></g><g id="g28" transform="translate(667.057 456.316)"><path id="path30" class="st1" d="M377.6 117.1V63.2H415V20.1h-37.3V-48c0-22.7 4.8-33.1 20.5-33.1 6.5 0 11.6.8 15.4 1.5l.3-44.2c-6.9-3.1-19.2-5.4-33.9-5.4-16.8 0-30.8 6.9-39 16.5-9.6 11.2-14.4 29.2-14.4 55.8v77h-22.3v43.1h22.3V104l51 13.1z"/></g><g id="g32" transform="translate(799.59 456.316)"><path id="path34" class="st1" d="M377.6 117.1V63.2H415V20.1h-37.3V-48c0-22.7 4.8-33.1 20.5-33.1 6.5 0 11.6.8 15.4 1.5l.3-44.2c-6.9-3.1-19.2-5.4-33.9-5.4-16.8 0-30.8 6.9-39 16.5-9.6 11.2-14.4 29.2-14.4 55.8v77h-22.3v43.1h22.3V104l51 13.1z"/></g><g id="g36" transform="translate(909.519 307.788)"><path id="path38" class="st1" d="M377.6 117.1c0-30 10.6-55.8 33.9-55.8 22.9 0 33.6 25.4 33.6 55.8 0 26.9-7.9 57.3-33.6 57.3-25.7 0-33.9-30.8-33.9-57.3m121.3.8c0-70.4-47.9-98.5-89.7-98.5-47.6 0-85.3 36.6-85.3 98.1 0 63.5 40.1 98.5 89.4 98.5 50.3 0 85.6-37.4 85.6-98.1"/></g><g id="g40" transform="translate(984.783 497.856)"><path id="path42" class="st2" d="M377.6 117.1c-.3.5-.7 1-1 1.4 4.4 36.2 55.8 38.7 55.8 70.4 0-21.7-47.3-13.3-74.4-30.9-.9 4.9-1.2 10.1-1.1 15.9 0 48.7 47.6 67.4 47.6 101.4 0-34.1-79-41.1-88.4-98.7-8.9 7.4-18.4 12.4-29.7 12.4-18.4 0-27.9-18.2-27.9-18.2s16.4 5.3 21.9-13.8c4.6-16.2 17.4-86.1 189-68.1 0 0-52.6 4.3-91.8 28.2"/></g><g id="g44" transform="translate(875.813 438.15)"><path id="path46" class="st2" d="M377.6 117.1c-.1.2-.2.3-.3.5 1.6 13.3 19.9 14.7 21 25.7-1.5-6.9-18.3-4.3-28.1-10.7-.3 1.9-.5 3.8-.4 6 0 18.5 18.1 25.6 18.1 38.5 0-13-30-15.6-33.5-37.5-3.4 2.8-7 4.7-11.3 4.7-7 0-10.6-6.9-10.6-6.9s6.2 2 8.3-5.2c1.8-6.2 6.6-32.7 71.7-25.8 0 0-20 1.6-34.9 10.7"/></g><g id="g48" transform="translate(896.523 464.332)"><path id="path50" class="st2" d="M377.6 117.1c.1.3.1.7.1 1.1 0-.4 0-.8-.1-1.1"/></g></g></g></g></svg>